PathFileType	4	(X/Y/Z)	/Users/itak/Documents/Research/Walk-IL/dataset/trc/00169_00008.trc
DataRate	CameraRate	NumFrames	NumMarkers	Units	OrigDataRate	OrigDataStartFrame	OrigNumFrames
100.000000	100.000000	4	54	mm	100.000000	137	551
Frame#	Time	RPSI			LPSI			L3			STRN			T10			C7			CLAV			RBAK			LBAK			LSHO			LUPA			LAEL			LAOL			LWTS			LWPS			LFRA			LIFD			LHPS			LHTS			RSHO			RUPA			RAEL			RAOL			RWTS			RWPS			RFRA			RIFD			RHTS			RHPS			RBHD			LFHD			RFHD			LBHD			LHIP			RHIP			RASI			LASI			LKNE			LTHI			LANK			LTIP			LTOE			LMT1			LMT5			LHEE			RKNE			RTHI			RANK			RTIP			RTOE			RMT1			RMT5			RHEE			*53			
		X1	Y1	Z1	X2	Y2	Z2	X3	Y3	Z3	X4	Y4	Z4	X5	Y5	Z5	X6	Y6	Z6	X7	Y7	Z7	X8	Y8	Z8	X9	Y9	Z9	X10	Y10	Z10	X11	Y11	Z11	X12	Y12	Z12	X13	Y13	Z13	X14	Y14	Z14	X15	Y15	Z15	X16	Y16	Z16	X17	Y17	Z17	X18	Y18	Z18	X19	Y19	Z19	X20	Y20	Z20	X21	Y21	Z21	X22	Y22	Z22	X23	Y23	Z23	X24	Y24	Z24	X25	Y25	Z25	X26	Y26	Z26	X27	Y27	Z27	X28	Y28	Z28	X29	Y29	Z29	X30	Y30	Z30	X31	Y31	Z31	X32	Y32	Z32	X33	Y33	Z33	X34	Y34	Z34	X35	Y35	Z35	X36	Y36	Z36	X37	Y37	Z37	X38	Y38	Z38	X39	Y39	Z39	X40	Y40	Z40	X41	Y41	Z41	X42	Y42	Z42	X43	Y43	Z43	X44	Y44	Z44	X45	Y45	Z45	X46	Y46	Z46	X47	Y47	Z47	X48	Y48	Z48	X49	Y49	Z49	X50	Y50	Z50	X51	Y51	Z51	X52	Y52	Z52	X53	Y53	Z53	X54	Y54	Z54	

138	1.37	678.3368530273438	1056.89892578125	270.0846862792969	667.0919189453125	1062.017211914062	148.0646820068359	676.305908203125	1099.387573242188	212.1657104492188	952.2598266601562	1290.772338867188	186.6227722167969	656.6445922851562	1256.619384765625	212.7269439697266	735.6294555664062	1522.384399414062	199.1908416748047	928.6693725585938	1405.489868164062	182.5650787353516	669.3001708984375	1348.741455078125	311.9652099609375	718.6611328125	1500.765258789062	99.93880462646484	786.1232299804688	1485.511840820312	14.46735382080078	732.9420166015625	1358.78173828125	-54.19760513305664	716.809326171875	1145.547729492188	-78.95597076416016	690.86572265625	1128.815551757812	4.183897495269775	809.5272827148438	904.4611206054688	-87.39975738525391	718.9320678710938	892.60888671875	-107.4404983520508	716.2110595703125	1035.60693359375	-100.7638626098633	812.4755249023438	717.686279296875	-76.23294830322266	734.2586059570312	820.9107055664062	-111.1719436645508	807.4845581054688	826.3793334960938	-112.4881286621094	814.4382934570312	1493.086059570312	372.9165649414062	797.4937744140625	1427.995361328125	444.0919494628906	784.5770263671875	1141.768676757812	510.4508361816406	774.2962036132812	1129.22900390625	415.040283203125	943.9322509765625	929.7515869140625	486.1121215820312	874.6195068359375	904.4138793945312	535.1076049804688	816.4843139648438	1070.953002929688	527.7606201171875	978.8148803710938	750.1560668945312	458.2624816894531	983.3770141601562	841.8446044921875	495.9840393066406	913.423828125	826.0220336914062	532.1856079101562	823.4534301757812	1683.958251953125	269.1506958007812	974.0486450195312	1707.972045898438	113.5092544555664	993.1956176757812	1707.931274414062	241.5477447509766	794.6737670898438	1692.69482421875	134.7289886474609	748.6502685546875	993.552001953125	15.35375308990479	844.8697509765625	1008.3330078125	375.2824096679688	917.8743896484375	1029.490478515625	310.9438781738281	882.8226928710938	1027.723022460938	54.11596298217773	789.1243896484375	488.3294067382812	6.386415004730225	788.8356323242188	636.4019165039062	-3.671149015426636	459.7012329101562	127.5714874267578	20.52890586853027	630.6375122070312	310.8937683105469	-2.020652055740356	652.4094848632812	38.20163345336914	37.02872085571289	614.4219970703125	59.58639907836914	85.28172302246094	544.11962890625	60.92266845703125	-17.65250968933105	425.6416320800781	163.1461639404297	90.83332824707031	956.8810424804688	521.5579833984375	340.0238342285156	932.3919067382812	789.6273803710938	374.6860961914062	877.5363159179688	38.50754547119141	352.7327575683594	976.444580078125	398.1783752441406	323.3046569824219	1101.556884765625	37.91475296020508	314.779052734375	1044.277221679688	36.41701126098633	269.3963317871094	990.2376708984375	35.41210556030273	386.3517150878906	825.1380004882812	37.93606185913086	286.6110229492188	nan	nan	nan	
139	1.38	672.9346313476562	1055.760620117188	267.3030395507812	662.1817016601562	1060.710205078125	145.2523498535156	671.0369873046875	1098.208251953125	209.2395935058594	946.8302612304688	1289.8388671875	184.0207061767578	651.2284545898438	1255.297607421875	209.7753295898438	729.8688354492188	1521.170166015625	196.3350677490234	923.0908203125	1404.530395507812	179.9368896484375	663.621337890625	1347.479125976562	309.0819702148438	713.0587768554688	1499.486694335938	97.03592681884766	780.6578979492188	1484.342163085938	11.64566612243652	727.9178466796875	1357.396850585938	-57.0619010925293	712.6343383789062	1144.0224609375	-81.62898254394531	686.5183715820312	1127.260375976562	1.422435402870178	806.4056396484375	903.3541870117188	-89.70339202880859	715.955322265625	891.0962524414062	-109.8655395507812	712.5698852539062	1034.066650390625	-103.3530578613281	810.1698608398438	716.6152954101562	-78.57098388671875	731.5573120117188	819.4732666015625	-113.5976867675781	804.7610473632812	825.2820434570312	-114.8138122558594	808.5563354492188	1491.992553710938	370.1444702148438	791.6771850585938	1426.859130859375	441.2792053222656	779.031005859375	1140.584350585938	507.5926818847656	768.9423828125	1128.102416992188	412.1653442382812	938.963134765625	929.0072631835938	483.2657775878906	869.6466674804688	903.4026489257812	532.1187133789062	811.0768432617188	1069.815185546875	524.8822021484375	974.3911743164062	749.5375366210938	455.2380065917969	978.6376342773438	841.2042846679688	493.0838012695312	908.6576538085938	825.1222534179688	529.1558227539062	816.7596435546875	1682.552612304688	266.641357421875	967.852294921875	1707.687744140625	111.607177734375	986.4756469726562	1707.390380859375	239.70947265625	788.4388427734375	1691.480102539062	132.0971984863281	743.7761840820312	992.1217651367188	12.71424961090088	839.6973876953125	1007.737670898438	372.66845703125	912.5786743164062	1028.712524414062	308.252685546875	877.9373779296875	1026.51025390625	51.41833877563477	778.7576293945312	487.1277160644531	8.08765983581543	780.5353393554688	634.8294067382812	-3.445776700973511	455.6614990234375	120.5236740112305	19.60721778869629	623.0551147460938	307.1425476074219	-1.610879898071289	650.1575927734375	37.91637420654297	37.75967025756836	611.307373046875	56.49111175537109	85.80326843261719	542.0579223632812	56.38970947265625	-18.07427024841309	420.0767517089844	155.1163482666016	89.71430206298828	955.5067749023438	521.9107055664062	338.3531799316406	928.5186157226562	789.7015991210938	372.5145874023438	877.7296142578125	38.75555419921875	352.7896118164062	975.7691040039062	398.5533447265625	321.7182006835938	1101.70263671875	37.8958854675293	314.62255859375	1044.332275390625	36.22194671630859	269.159912109375	990.4203491210938	35.60122299194336	386.0893249511719	825.2135009765625	38.10037231445312	286.7538146972656	nan	nan	nan	
140	1.39	667.2581787109375	1054.586791992188	264.3746337890625	657.0103759765625	1059.380004882812	142.2861480712891	665.4968872070312	1097.002319335938	206.1632843017578	941.2213134765625	1288.77490234375	181.2933654785156	645.62060546875	1253.942504882812	206.6746215820312	724.0133666992188	1519.910888671875	193.3781890869141	917.384033203125	1403.44921875	177.1891479492188	657.7911987304688	1346.175903320312	306.0715637207031	707.345703125	1498.16650390625	94.02876281738281	775.076904296875	1483.119140625	8.711747169494629	722.7372436523438	1355.965576171875	-60.03493499755859	708.2950439453125	1142.430541992188	-84.39423370361328	681.992431640625	1125.642700195312	-1.438324332237244	803.40966796875	902.3058471679688	-92.02528381347656	713.1299438476562	889.4873657226562	-112.2887191772461	708.8793334960938	1032.433959960938	-106.0066299438477	808.3333129882812	715.6392822265625	-80.91122436523438	729.1258544921875	817.9703979492188	-116.0226669311523	802.3014526367188	824.2575073242188	-117.1470336914062	802.5875854492188	1490.783081054688	367.269287109375	785.7723999023438	1425.592651367188	438.3497924804688	773.3875732421875	1139.277465820312	504.6339416503906	763.4594116210938	1126.85693359375	409.2081604003906	933.8148803710938	928.0887451171875	480.2761535644531	864.5048828125	902.2509765625	529.0228271484375	805.5638427734375	1068.554565429688	521.8951416015625	969.6844482421875	748.7230834960938	452.0640869140625	973.6795654296875	840.3668823242188	490.0213623046875	903.6835327148438	824.0665283203125	526.0054931640625	810.0140991210938	1681.03759765625	264.0249938964844	961.57373046875	1707.293823242188	109.6054611206055	979.7075805664062	1706.72509765625	237.7568359375	782.14697265625	1690.189453125	129.3844909667969	738.7185668945312	990.6167602539062	9.948040008544922	834.1256103515625	1007.083251953125	369.9820556640625	906.96923828125	1027.861450195312	305.5180358886719	872.855224609375	1025.163818359375	48.65724945068359	768.2431640625	485.9357299804688	9.691767692565918	772.1514892578125	633.2164916992188	-3.323465824127197	451.9643859863281	113.4113616943359	19.15822982788086	615.5523681640625	303.2834167480469	-0.9808648824691772	648.2972412109375	37.890869140625	38.44699096679688	608.6997680664062	53.60215377807617	86.38570404052734	540.3329467773438	52.14801025390625	-18.30259704589844	414.8828125	146.8739929199219	89.13006591796875	953.8787231445312	522.2587280273438	336.6817932128906	924.240478515625	789.7385864257812	370.2845458984375	877.9354248046875	39.00339508056641	352.8446655273438	974.9048461914062	398.9877624511719	320.093994140625	1101.849975585938	37.88297271728516	314.4598083496094	1044.38427734375	36.0355339050293	268.9313659667969	990.6041259765625	35.78696823120117	385.8227844238281	825.2921142578125	38.26914596557617	286.8909606933594	nan	nan	nan	
141	1.4	661.3043823242188	1053.397827148438	261.3088684082031	651.5740356445312	1058.04345703125	139.1578063964844	659.6975708007812	1095.7822265625	202.94287109375	935.4324951171875	1287.592895507812	178.4473266601562	639.8153076171875	1252.57470703125	203.4170532226562	718.0638427734375	1518.623779296875	190.3057098388672	911.5479736328125	1402.256469726562	174.3253326416016	651.7959594726562	1344.848999023438	302.9153137207031	701.5309448242188	1496.819702148438	90.90348052978516	769.3936157226562	1481.8515625	5.65538215637207	717.4135131835938	1354.494995117188	-63.12579727172852	703.8040771484375	1140.776733398438	-87.25764465332031	677.2887573242188	1123.969848632812	-4.407588005065918	800.530029296875	901.316650390625	-94.35238647460938	710.4405517578125	887.79296875	-114.7058181762695	705.1434936523438	1030.715454101562	-108.7251129150391	806.9284057617188	714.7640991210938	-83.22320556640625	726.947998046875	816.4136352539062	-118.4322280883789	800.0855712890625	823.3046264648438	-119.471565246582	796.5138549804688	1489.467895507812	364.2868957519531	779.7547607421875	1424.202392578125	435.296630859375	767.6368408203125	1137.853271484375	501.5662841796875	757.8181762695312	1125.493530273438	406.1531677246094	928.4861450195312	927.0087890625	477.1466369628906	859.19482421875	900.9730834960938	525.8280639648438	799.9326171875	1067.179443359375	518.7955932617188	964.70166015625	747.7240600585938	448.7561645507812	968.5052490234375	839.3461303710938	486.8038635253906	898.5117797851562	822.8709106445312	522.746826171875	803.2238159179688	1679.432739257812	261.3025207519531	955.22998046875	1706.804931640625	107.5096206665039	972.900146484375	1705.946044921875	235.7042541503906	775.8101806640625	1688.84814453125	126.5911026000977	733.484375	989.04931640625	7.078677654266357	828.1442260742188	1006.378662109375	367.2502136230469	901.0364990234375	1026.943115234375	302.7669982910156	867.5844116210938	1023.684875488281	45.85645294189453	757.6080932617188	484.7660522460938	11.11751174926758	763.6719360351562	631.602783203125	-3.360594272613525	448.4729614257812	106.4277191162109	19.27496337890625	608.0964965820312	299.4211120605469	-0.1278710663318634	646.6935424804688	38.00934600830078	39.07784652709961	606.5007934570312	51.05509185791016	86.99324035644531	538.73486328125	48.31471252441406	-18.28764724731445	409.9983825683594	138.6660766601562	89.18370819091797	951.9259643554688	522.5992431640625	335.0340881347656	919.52490234375	789.7295532226562	368.0282592773438	878.1511840820312	39.24867248535156	352.8953552246094	973.77880859375	399.4832458496094	318.4707946777344	1101.997924804688	37.8734130859375	314.2950439453125	1044.434692382812	35.86582946777344	268.7202758789062	990.7830810546875	35.95966720581055	385.5714416503906	825.3753051757812	38.43567657470703	287.015869140625	nan	nan	nan	
